<?xml version="1.0" encoding="utf-8"?>
<svg version="1.1" baseProfile="full" width="800" height="600" xmlns="http://www.w3.org/2000/svg">
<clipPath>
<rect x="0" y="0" width="800" height="600" fill="rgb(0,0,0)" />
</clipPath>
<text x="279" y="34" fill="rgb(0,0,0)">
Number of Elements Sorted Versus Time</text>
<line x1="158.858" y1="50" x2="158.858" y2="550" stroke="rgb(200,200,200)" />
<line x1="222.835" y1="50" x2="222.835" y2="550" stroke="rgb(200,200,200)" />
<line x1="286.811" y1="50" x2="286.811" y2="550" stroke="rgb(200,200,200)" />
<line x1="350.787" y1="50" x2="350.787" y2="550" stroke="rgb(200,200,200)" />
<line x1="414.764" y1="50" x2="414.764" y2="550" stroke="rgb(200,200,200)" />
<line x1="478.74" y1="50" x2="478.74" y2="550" stroke="rgb(200,200,200)" />
<line x1="542.717" y1="50" x2="542.717" y2="550" stroke="rgb(200,200,200)" />
<line x1="606.693" y1="50" x2="606.693" y2="550" stroke="rgb(200,200,200)" />
<line x1="670.669" y1="50" x2="670.669" y2="550" stroke="rgb(200,200,200)" />
<line x1="734.646" y1="50" x2="734.646" y2="550" stroke="rgb(200,200,200)" />
<line x1="100" y1="550" x2="750" y2="550" stroke="rgb(200,200,200)" />
<line x1="100" y1="495.516" x2="750" y2="495.516" stroke="rgb(200,200,200)" />
<line x1="100" y1="441.032" x2="750" y2="441.032" stroke="rgb(200,200,200)" />
<line x1="100" y1="386.548" x2="750" y2="386.548" stroke="rgb(200,200,200)" />
<line x1="100" y1="332.064" x2="750" y2="332.064" stroke="rgb(200,200,200)" />
<line x1="100" y1="277.58" x2="750" y2="277.58" stroke="rgb(200,200,200)" />
<line x1="100" y1="223.096" x2="750" y2="223.096" stroke="rgb(200,200,200)" />
<line x1="100" y1="168.612" x2="750" y2="168.612" stroke="rgb(200,200,200)" />
<line x1="100" y1="114.128" x2="750" y2="114.128" stroke="rgb(200,200,200)" />
<line x1="100" y1="59.6437" x2="750" y2="59.6437" stroke="rgb(200,200,200)" />
<line x1="100" y1="550" x2="750" y2="550" stroke="rgb(0,0,0)" />
<line x1="107.677" y1="550" x2="107.677" y2="554" stroke="rgb(0,0,0)" />
<line x1="120.472" y1="550" x2="120.472" y2="554" stroke="rgb(0,0,0)" />
<line x1="133.268" y1="550" x2="133.268" y2="554" stroke="rgb(0,0,0)" />
<line x1="146.063" y1="550" x2="146.063" y2="554" stroke="rgb(0,0,0)" />
<text x="158" y="578" fill="rgb(0,0,0)">
200</text>
<line x1="158.858" y1="550" x2="158.858" y2="558" stroke="rgb(0,0,0)" />
<line x1="171.654" y1="550" x2="171.654" y2="554" stroke="rgb(0,0,0)" />
<line x1="184.449" y1="550" x2="184.449" y2="554" stroke="rgb(0,0,0)" />
<line x1="197.244" y1="550" x2="197.244" y2="554" stroke="rgb(0,0,0)" />
<line x1="210.039" y1="550" x2="210.039" y2="554" stroke="rgb(0,0,0)" />
<text x="222" y="578" fill="rgb(0,0,0)">
400</text>
<line x1="222.835" y1="550" x2="222.835" y2="558" stroke="rgb(0,0,0)" />
<line x1="235.63" y1="550" x2="235.63" y2="554" stroke="rgb(0,0,0)" />
<line x1="248.425" y1="550" x2="248.425" y2="554" stroke="rgb(0,0,0)" />
<line x1="261.22" y1="550" x2="261.22" y2="554" stroke="rgb(0,0,0)" />
<line x1="274.016" y1="550" x2="274.016" y2="554" stroke="rgb(0,0,0)" />
<text x="286" y="578" fill="rgb(0,0,0)">
600</text>
<line x1="286.811" y1="550" x2="286.811" y2="558" stroke="rgb(0,0,0)" />
<line x1="299.606" y1="550" x2="299.606" y2="554" stroke="rgb(0,0,0)" />
<line x1="312.402" y1="550" x2="312.402" y2="554" stroke="rgb(0,0,0)" />
<line x1="325.197" y1="550" x2="325.197" y2="554" stroke="rgb(0,0,0)" />
<line x1="337.992" y1="550" x2="337.992" y2="554" stroke="rgb(0,0,0)" />
<text x="350" y="578" fill="rgb(0,0,0)">
800</text>
<line x1="350.787" y1="550" x2="350.787" y2="558" stroke="rgb(0,0,0)" />
<line x1="363.583" y1="550" x2="363.583" y2="554" stroke="rgb(0,0,0)" />
<line x1="376.378" y1="550" x2="376.378" y2="554" stroke="rgb(0,0,0)" />
<line x1="389.173" y1="550" x2="389.173" y2="554" stroke="rgb(0,0,0)" />
<line x1="401.969" y1="550" x2="401.969" y2="554" stroke="rgb(0,0,0)" />
<text x="414" y="578" fill="rgb(0,0,0)">
1000</text>
<line x1="414.764" y1="550" x2="414.764" y2="558" stroke="rgb(0,0,0)" />
<line x1="427.559" y1="550" x2="427.559" y2="554" stroke="rgb(0,0,0)" />
<line x1="440.354" y1="550" x2="440.354" y2="554" stroke="rgb(0,0,0)" />
<line x1="453.15" y1="550" x2="453.15" y2="554" stroke="rgb(0,0,0)" />
<line x1="465.945" y1="550" x2="465.945" y2="554" stroke="rgb(0,0,0)" />
<text x="478" y="578" fill="rgb(0,0,0)">
1200</text>
<line x1="478.74" y1="550" x2="478.74" y2="558" stroke="rgb(0,0,0)" />
<line x1="491.535" y1="550" x2="491.535" y2="554" stroke="rgb(0,0,0)" />
<line x1="504.331" y1="550" x2="504.331" y2="554" stroke="rgb(0,0,0)" />
<line x1="517.126" y1="550" x2="517.126" y2="554" stroke="rgb(0,0,0)" />
<line x1="529.921" y1="550" x2="529.921" y2="554" stroke="rgb(0,0,0)" />
<text x="542" y="578" fill="rgb(0,0,0)">
1400</text>
<line x1="542.717" y1="550" x2="542.717" y2="558" stroke="rgb(0,0,0)" />
<line x1="555.512" y1="550" x2="555.512" y2="554" stroke="rgb(0,0,0)" />
<line x1="568.307" y1="550" x2="568.307" y2="554" stroke="rgb(0,0,0)" />
<line x1="581.102" y1="550" x2="581.102" y2="554" stroke="rgb(0,0,0)" />
<line x1="593.898" y1="550" x2="593.898" y2="554" stroke="rgb(0,0,0)" />
<text x="606" y="578" fill="rgb(0,0,0)">
1600</text>
<line x1="606.693" y1="550" x2="606.693" y2="558" stroke="rgb(0,0,0)" />
<line x1="619.488" y1="550" x2="619.488" y2="554" stroke="rgb(0,0,0)" />
<line x1="632.283" y1="550" x2="632.283" y2="554" stroke="rgb(0,0,0)" />
<line x1="645.079" y1="550" x2="645.079" y2="554" stroke="rgb(0,0,0)" />
<line x1="657.874" y1="550" x2="657.874" y2="554" stroke="rgb(0,0,0)" />
<text x="670" y="578" fill="rgb(0,0,0)">
1800</text>
<line x1="670.669" y1="550" x2="670.669" y2="558" stroke="rgb(0,0,0)" />
<line x1="683.465" y1="550" x2="683.465" y2="554" stroke="rgb(0,0,0)" />
<line x1="696.26" y1="550" x2="696.26" y2="554" stroke="rgb(0,0,0)" />
<line x1="709.055" y1="550" x2="709.055" y2="554" stroke="rgb(0,0,0)" />
<line x1="721.85" y1="550" x2="721.85" y2="554" stroke="rgb(0,0,0)" />
<text x="734" y="578" fill="rgb(0,0,0)">
2000</text>
<line x1="734.646" y1="550" x2="734.646" y2="558" stroke="rgb(0,0,0)" />
<line x1="747.441" y1="550" x2="747.441" y2="554" stroke="rgb(0,0,0)" />
<text x="409" y="594" fill="rgb(0,0,0)">
N</text>
<line x1="100" y1="50" x2="100" y2="550" stroke="rgb(0,0,0)" />
<text x="58" y="558" fill="rgb(0,0,0)">
0</text>
<line x1="100" y1="550" x2="92" y2="550" stroke="rgb(0,0,0)" />
<line x1="100" y1="539.103" x2="96" y2="539.103" stroke="rgb(0,0,0)" />
<line x1="100" y1="528.206" x2="96" y2="528.206" stroke="rgb(0,0,0)" />
<line x1="100" y1="517.31" x2="96" y2="517.31" stroke="rgb(0,0,0)" />
<line x1="100" y1="506.413" x2="96" y2="506.413" stroke="rgb(0,0,0)" />
<text x="40" y="503" fill="rgb(0,0,0)">
2000</text>
<line x1="100" y1="495.516" x2="92" y2="495.516" stroke="rgb(0,0,0)" />
<line x1="100" y1="484.619" x2="96" y2="484.619" stroke="rgb(0,0,0)" />
<line x1="100" y1="473.722" x2="96" y2="473.722" stroke="rgb(0,0,0)" />
<line x1="100" y1="462.826" x2="96" y2="462.826" stroke="rgb(0,0,0)" />
<line x1="100" y1="451.929" x2="96" y2="451.929" stroke="rgb(0,0,0)" />
<text x="40" y="449" fill="rgb(0,0,0)">
4000</text>
<line x1="100" y1="441.032" x2="92" y2="441.032" stroke="rgb(0,0,0)" />
<line x1="100" y1="430.135" x2="96" y2="430.135" stroke="rgb(0,0,0)" />
<line x1="100" y1="419.238" x2="96" y2="419.238" stroke="rgb(0,0,0)" />
<line x1="100" y1="408.341" x2="96" y2="408.341" stroke="rgb(0,0,0)" />
<line x1="100" y1="397.445" x2="96" y2="397.445" stroke="rgb(0,0,0)" />
<text x="40" y="394" fill="rgb(0,0,0)">
6000</text>
<line x1="100" y1="386.548" x2="92" y2="386.548" stroke="rgb(0,0,0)" />
<line x1="100" y1="375.651" x2="96" y2="375.651" stroke="rgb(0,0,0)" />
<line x1="100" y1="364.754" x2="96" y2="364.754" stroke="rgb(0,0,0)" />
<line x1="100" y1="353.857" x2="96" y2="353.857" stroke="rgb(0,0,0)" />
<line x1="100" y1="342.961" x2="96" y2="342.961" stroke="rgb(0,0,0)" />
<text x="40" y="340" fill="rgb(0,0,0)">
8000</text>
<line x1="100" y1="332.064" x2="92" y2="332.064" stroke="rgb(0,0,0)" />
<line x1="100" y1="321.167" x2="96" y2="321.167" stroke="rgb(0,0,0)" />
<line x1="100" y1="310.27" x2="96" y2="310.27" stroke="rgb(0,0,0)" />
<line x1="100" y1="299.373" x2="96" y2="299.373" stroke="rgb(0,0,0)" />
<line x1="100" y1="288.477" x2="96" y2="288.477" stroke="rgb(0,0,0)" />
<text x="36" y="285" fill="rgb(0,0,0)">
10000</text>
<line x1="100" y1="277.58" x2="92" y2="277.58" stroke="rgb(0,0,0)" />
<line x1="100" y1="266.683" x2="96" y2="266.683" stroke="rgb(0,0,0)" />
<line x1="100" y1="255.786" x2="96" y2="255.786" stroke="rgb(0,0,0)" />
<line x1="100" y1="244.889" x2="96" y2="244.889" stroke="rgb(0,0,0)" />
<line x1="100" y1="233.993" x2="96" y2="233.993" stroke="rgb(0,0,0)" />
<text x="36" y="231" fill="rgb(0,0,0)">
12000</text>
<line x1="100" y1="223.096" x2="92" y2="223.096" stroke="rgb(0,0,0)" />
<line x1="100" y1="212.199" x2="96" y2="212.199" stroke="rgb(0,0,0)" />
<line x1="100" y1="201.302" x2="96" y2="201.302" stroke="rgb(0,0,0)" />
<line x1="100" y1="190.405" x2="96" y2="190.405" stroke="rgb(0,0,0)" />
<line x1="100" y1="179.509" x2="96" y2="179.509" stroke="rgb(0,0,0)" />
<text x="36" y="176" fill="rgb(0,0,0)">
14000</text>
<line x1="100" y1="168.612" x2="92" y2="168.612" stroke="rgb(0,0,0)" />
<line x1="100" y1="157.715" x2="96" y2="157.715" stroke="rgb(0,0,0)" />
<line x1="100" y1="146.818" x2="96" y2="146.818" stroke="rgb(0,0,0)" />
<line x1="100" y1="135.921" x2="96" y2="135.921" stroke="rgb(0,0,0)" />
<line x1="100" y1="125.025" x2="96" y2="125.025" stroke="rgb(0,0,0)" />
<text x="36" y="122" fill="rgb(0,0,0)">
16000</text>
<line x1="100" y1="114.128" x2="92" y2="114.128" stroke="rgb(0,0,0)" />
<line x1="100" y1="103.231" x2="96" y2="103.231" stroke="rgb(0,0,0)" />
<line x1="100" y1="92.3341" x2="96" y2="92.3341" stroke="rgb(0,0,0)" />
<line x1="100" y1="81.4373" x2="96" y2="81.4373" stroke="rgb(0,0,0)" />
<line x1="100" y1="70.5405" x2="96" y2="70.5405" stroke="rgb(0,0,0)" />
<text x="36" y="67" fill="rgb(0,0,0)">
18000</text>
<line x1="100" y1="59.6437" x2="92" y2="59.6437" stroke="rgb(0,0,0)" />
<text x="36" y="370" transform="rotate(-90,36,370)">Time (microseconds)</text>
<text x="120" y="66" fill="rgb(200,0,100)">
bubbleSort</text>
<text x="120" y="98" fill="rgb(100,20,220)">
selectionSort</text>
<text x="120" y="130" fill="rgb(50,220,10)">
insertionSort</text>
<text x="120" y="162" fill="rgb(200,209,220)">
std::sort</text>
<clipPath>
<rect x="100" y="50" width="650" height="500" fill="rgb(0,0,0)" />
</clipPath>
<line x1="100" y1="549.945" x2="105.118" y2="549.864" stroke="rgb(200,0,100)" />
<line x1="105.118" y1="549.864" x2="115.354" y2="549.51" stroke="rgb(200,0,100)" />
<line x1="115.354" y1="549.51" x2="135.827" y2="548.12" stroke="rgb(200,0,100)" />
<line x1="135.827" y1="548.12" x2="176.772" y2="542.863" stroke="rgb(200,0,100)" />
<line x1="176.772" y1="542.863" x2="258.661" y2="520.47" stroke="rgb(200,0,100)" />
<line x1="258.661" y1="520.47" x2="422.441" y2="427.22" stroke="rgb(200,0,100)" />
<line x1="422.441" y1="427.22" x2="750" y2="50" stroke="rgb(200,0,100)" />
<line x1="100" y1="549.973" x2="105.118" y2="549.945" stroke="rgb(100,20,220)" />
<line x1="105.118" y1="549.945" x2="115.354" y2="549.809" stroke="rgb(100,20,220)" />
<line x1="115.354" y1="549.809" x2="135.827" y2="549.319" stroke="rgb(100,20,220)" />
<line x1="135.827" y1="549.319" x2="176.772" y2="547.657" stroke="rgb(100,20,220)" />
<line x1="176.772" y1="547.657" x2="258.661" y2="541.283" stroke="rgb(100,20,220)" />
<line x1="258.661" y1="541.283" x2="422.441" y2="516.629" stroke="rgb(100,20,220)" />
<line x1="422.441" y1="516.629" x2="750" y2="418.884" stroke="rgb(100,20,220)" />
<line x1="100" y1="550" x2="105.118" y2="550" stroke="rgb(50,220,10)" />
<line x1="105.118" y1="550" x2="115.354" y2="550" stroke="rgb(50,220,10)" />
<line x1="115.354" y1="550" x2="135.827" y2="550" stroke="rgb(50,220,10)" />
<line x1="135.827" y1="550" x2="176.772" y2="549.973" stroke="rgb(50,220,10)" />
<line x1="176.772" y1="549.973" x2="258.661" y2="549.945" stroke="rgb(50,220,10)" />
<line x1="258.661" y1="549.945" x2="422.441" y2="549.891" stroke="rgb(50,220,10)" />
<line x1="422.441" y1="549.891" x2="750" y2="549.809" stroke="rgb(50,220,10)" />
<line x1="100" y1="549.973" x2="105.118" y2="549.945" stroke="rgb(200,209,220)" />
<line x1="105.118" y1="549.945" x2="115.354" y2="549.864" stroke="rgb(200,209,220)" />
<line x1="115.354" y1="549.864" x2="135.827" y2="549.646" stroke="rgb(200,209,220)" />
<line x1="135.827" y1="549.646" x2="176.772" y2="549.183" stroke="rgb(200,209,220)" />
<line x1="176.772" y1="549.183" x2="258.661" y2="548.12" stroke="rgb(200,209,220)" />
<line x1="258.661" y1="548.12" x2="422.441" y2="545.886" stroke="rgb(200,209,220)" />
<line x1="422.441" y1="545.886" x2="750" y2="541.228" stroke="rgb(200,209,220)" />
</svg>

